<svg xmlns="http://www.w3.org/2000/svg" xmlns:xlink="http://www.w3.org/1999/xlink" width="106" height="106" version="1.1"><g><path fill="#fff" stroke="#000" stroke-miterlimit="10" stroke-width="3" d="M 83.5 63.5 L 83.5 43.5 L 63.5 13.5 L 23.5 13.5 L 23.5 33.5 L 33.5 43.5 L 33.5 63.5 L 23.5 73.5 L 23.5 93.5 L 63.5 93.5 L 83.5 63.5 Z" paint-order="fill stroke markers"/><path fill="none" stroke="none"/><text x="30" y="85" fill="#000" stroke="none" dominant-baseline="alphabetic" font-family="Georgia" font-size="6" font-style="normal" font-weight="normal" text-anchor="middle" text-decoration="normal">B</text><text x="30" y="25" fill="#000" stroke="none" dominant-baseline="alphabetic" font-family="Georgia" font-size="6" font-style="normal" font-weight="normal" text-anchor="middle" text-decoration="normal">A</text><text x="43" y="25" fill="#000" stroke="none" dominant-baseline="alphabetic" font-family="Georgia" font-size="6" font-style="normal" font-weight="normal" text-anchor="middle" text-decoration="normal">CTR</text><text x="43" y="85" fill="#000" stroke="none" dominant-baseline="alphabetic" font-family="Georgia" font-size="6" font-style="normal" font-weight="normal" text-anchor="middle" text-decoration="normal">Carry</text><text x="73" y="55" fill="#000" stroke="none" dominant-baseline="alphabetic" font-family="Georgia" font-size="6" font-style="normal" font-weight="normal" text-anchor="middle" text-decoration="normal">Ans</text><path fill="none" stroke="none"/><text x="53" y="57" fill="#006400" stroke="none" dominant-baseline="alphabetic" font-family="Georgia" font-size="12" font-style="normal" font-weight="normal" text-anchor="middle" text-decoration="normal">ALU</text><path fill="green" stroke="none" d="M 26 23 A 3 3 0 1 1 25.999998500000125 22.997000000499998 Z" paint-order="stroke fill markers"/><path fill="green" stroke="none" d="M 26 83 A 3 3 0 1 1 25.999998500000125 82.9970000005 Z" paint-order="stroke fill markers"/><path fill="green" stroke="none" d="M 46 13 A 3 3 0 1 1 45.999998500000125 12.997000000499998 Z" paint-order="stroke fill markers"/><path fill="green" stroke="none" d="M 46 93 A 3 3 0 1 1 45.999998500000125 92.9970000005 Z" paint-order="stroke fill markers"/><path fill="green" stroke="none" d="M 86 53 A 3 3 0 1 1 85.99999850000013 52.9970000005 Z" paint-order="stroke fill markers"/></g></svg>