<svg xmlns="http://www.w3.org/2000/svg" xmlns:xlink="http://www.w3.org/1999/xlink" id="Layer_1" x="0" y="0" version="1.1" viewBox="0 0 50 50" xml:space="preserve" style="enable-background:new 0 0 50 50"><style type="text/css">.st0,.st1{stroke-miterlimit:10}.st0{fill:#fff;fill-opacity:.8;stroke:#000;stroke-width:3}.st1{fill:none;stroke:red}.st2{fill:red}</style><g><path d="M12,5c10,0,25,10,30,20c-5,10-20,20-30,20C22,25,22,25,12,5z" class="st0"/></g><g><g><line x1="3" x2="46.8" y1="25.5" y2="25.5" class="st1"/><g><polygon points="44.9 27.2 46.6 25.5 44.9 23.8 46.3 23.8 48 25.5 46.3 27.2" class="st2"/></g></g></g><g><g><line x1="3" x2="46.8" y1="36" y2="36" class="st1"/><g><polygon points="44.9 37.7 46.6 36 44.9 34.3 46.3 34.3 48 36 46.3 37.7" class="st2"/></g></g></g><g><g><line x1="3" x2="46.8" y1="15" y2="15" class="st1"/><g><polygon points="44.9 16.7 46.6 15 44.9 13.4 46.3 13.4 48 15 46.3 16.7" class="st2"/></g></g></g></svg>