<svg xmlns="http://www.w3.org/2000/svg" xmlns:xlink="http://www.w3.org/1999/xlink" width="70" height="70" version="1.1"><g><path fill="none" stroke="green" stroke-miterlimit="10" stroke-width="3" d="M 35 40 L 35 60" paint-order="fill stroke markers"/><path fill="none" stroke="red" stroke-miterlimit="10" stroke-width="2" d="M 25 40 L 25 60" paint-order="fill stroke markers"/><path fill="none" stroke="#00f" stroke-miterlimit="10" stroke-width="2" d="M 45 40 L 45 60" paint-order="fill stroke markers"/><path fill="#E3E4E5" fill-opacity=".8" stroke="#d3d4d5" stroke-miterlimit="10" d="M 24 38 L 24 20 L 24 20 A 11 11 0 0 1 46 20 L 46 38 L 50 41 L 50 41 A 25.80697580112788 25.80697580112788 0 0 1 20 41 L 24 38" paint-order="stroke fill markers"/><path fill="green" stroke="none" d="M 28 60 A 3 3 0 1 1 27.999998500000125 59.9970000005 Z" paint-order="stroke fill markers"/><path fill="green" stroke="none" d="M 38 60 A 3 3 0 1 1 37.999998500000125 59.9970000005 Z" paint-order="stroke fill markers"/><path fill="green" stroke="none" d="M 48 60 A 3 3 0 1 1 47.999998500000125 59.9970000005 Z" paint-order="stroke fill markers"/></g></svg>