<svg xmlns="http://www.w3.org/2000/svg" xmlns:xlink="http://www.w3.org/1999/xlink" width="170" height="170" version="1.1"><g><path fill="#fff" stroke="#000" stroke-miterlimit="10" stroke-width="3" d="M 5.5 35.5 L 165.5 35.5 L 165.5 135.5 L 5.5 135.5 L 5.5 35.5 Z" paint-order="fill stroke markers"/><path fill="#fafafa" stroke="#000" stroke-miterlimit="10" d="M 50.5 50.5 L 70.5 50.5 L 70.5 66.5 L 50.5 66.5 L 50.5 50.5 Z M 70.5 50.5 L 90.5 50.5 L 90.5 66.5 L 70.5 66.5 L 70.5 50.5 Z M 90.5 50.5 L 110.5 50.5 L 110.5 66.5 L 90.5 66.5 L 90.5 50.5 Z M 110.5 50.5 L 130.5 50.5 L 130.5 66.5 L 110.5 66.5 L 110.5 50.5 Z M 50.5 66.5 L 70.5 66.5 L 70.5 82.5 L 50.5 82.5 L 50.5 66.5 Z M 70.5 66.5 L 90.5 66.5 L 90.5 82.5 L 70.5 82.5 L 70.5 66.5 Z M 90.5 66.5 L 110.5 66.5 L 110.5 82.5 L 90.5 82.5 L 90.5 66.5 Z M 110.5 66.5 L 130.5 66.5 L 130.5 82.5 L 110.5 82.5 L 110.5 66.5 Z M 50.5 82.5 L 70.5 82.5 L 70.5 98.5 L 50.5 98.5 L 50.5 82.5 Z M 70.5 82.5 L 90.5 82.5 L 90.5 98.5 L 70.5 98.5 L 70.5 82.5 Z M 90.5 82.5 L 110.5 82.5 L 110.5 98.5 L 90.5 98.5 L 90.5 82.5 Z M 110.5 82.5 L 130.5 82.5 L 130.5 98.5 L 110.5 98.5 L 110.5 82.5 Z M 50.5 98.5 L 70.5 98.5 L 70.5 114.5 L 50.5 114.5 L 50.5 98.5 Z M 70.5 98.5 L 90.5 98.5 L 90.5 114.5 L 70.5 114.5 L 70.5 98.5 Z M 90.5 98.5 L 110.5 98.5 L 110.5 114.5 L 90.5 114.5 L 90.5 98.5 Z M 110.5 98.5 L 130.5 98.5 L 130.5 114.5 L 110.5 114.5 L 110.5 98.5 Z" paint-order="fill stroke markers"/><path fill="none" stroke="none"/><text x="20" y="90" fill="#000" stroke="none" dominant-baseline="alphabetic" font-family="Georgia" font-size="16" font-style="normal" font-weight="normal" text-anchor="end" text-decoration="normal">A</text><text x="160" y="90" fill="#000" stroke="none" dominant-baseline="alphabetic" font-family="Georgia" font-size="16" font-style="normal" font-weight="normal" text-anchor="end" text-decoration="normal">D</text><text x="90" y="132" fill="#000" stroke="none" dominant-baseline="alphabetic" font-family="Georgia" font-size="16" font-style="normal" font-weight="normal" text-anchor="end" text-decoration="normal">En</text><path fill="none" stroke="none"/><text x="60" y="62" fill="#000" stroke="none" dominant-baseline="alphabetic" font-family="Georgia" font-size="14" font-style="normal" font-weight="normal" text-anchor="middle" text-decoration="normal">00</text><text x="80" y="62" fill="#000" stroke="none" dominant-baseline="alphabetic" font-family="Georgia" font-size="14" font-style="normal" font-weight="normal" text-anchor="middle" text-decoration="normal">00</text><text x="100" y="62" fill="#000" stroke="none" dominant-baseline="alphabetic" font-family="Georgia" font-size="14" font-style="normal" font-weight="normal" text-anchor="middle" text-decoration="normal">00</text><text x="120" y="62" fill="#000" stroke="none" dominant-baseline="alphabetic" font-family="Georgia" font-size="14" font-style="normal" font-weight="normal" text-anchor="middle" text-decoration="normal">00</text><text x="60" y="78" fill="#000" stroke="none" dominant-baseline="alphabetic" font-family="Georgia" font-size="14" font-style="normal" font-weight="normal" text-anchor="middle" text-decoration="normal">00</text><text x="80" y="78" fill="#000" stroke="none" dominant-baseline="alphabetic" font-family="Georgia" font-size="14" font-style="normal" font-weight="normal" text-anchor="middle" text-decoration="normal">00</text><text x="100" y="78" fill="#000" stroke="none" dominant-baseline="alphabetic" font-family="Georgia" font-size="14" font-style="normal" font-weight="normal" text-anchor="middle" text-decoration="normal">00</text><text x="120" y="78" fill="#000" stroke="none" dominant-baseline="alphabetic" font-family="Georgia" font-size="14" font-style="normal" font-weight="normal" text-anchor="middle" text-decoration="normal">00</text><text x="60" y="94" fill="#000" stroke="none" dominant-baseline="alphabetic" font-family="Georgia" font-size="14" font-style="normal" font-weight="normal" text-anchor="middle" text-decoration="normal">00</text><text x="80" y="94" fill="#000" stroke="none" dominant-baseline="alphabetic" font-family="Georgia" font-size="14" font-style="normal" font-weight="normal" text-anchor="middle" text-decoration="normal">00</text><text x="100" y="94" fill="#000" stroke="none" dominant-baseline="alphabetic" font-family="Georgia" font-size="14" font-style="normal" font-weight="normal" text-anchor="middle" text-decoration="normal">00</text><text x="120" y="94" fill="#000" stroke="none" dominant-baseline="alphabetic" font-family="Georgia" font-size="14" font-style="normal" font-weight="normal" text-anchor="middle" text-decoration="normal">00</text><text x="60" y="110" fill="#000" stroke="none" dominant-baseline="alphabetic" font-family="Georgia" font-size="14" font-style="normal" font-weight="normal" text-anchor="middle" text-decoration="normal">00</text><text x="80" y="110" fill="#000" stroke="none" dominant-baseline="alphabetic" font-family="Georgia" font-size="14" font-style="normal" font-weight="normal" text-anchor="middle" text-decoration="normal">00</text><text x="100" y="110" fill="#000" stroke="none" dominant-baseline="alphabetic" font-family="Georgia" font-size="14" font-style="normal" font-weight="normal" text-anchor="middle" text-decoration="normal">00</text><text x="120" y="110" fill="#000" stroke="none" dominant-baseline="alphabetic" font-family="Georgia" font-size="14" font-style="normal" font-weight="normal" text-anchor="middle" text-decoration="normal">00</text><path fill="none" stroke="none"/><text x="45" y="62" fill="#000" stroke="none" dominant-baseline="alphabetic" font-family="Georgia" font-size="14" font-style="normal" font-weight="normal" text-anchor="end" text-decoration="normal">00</text><text x="45" y="78" fill="#000" stroke="none" dominant-baseline="alphabetic" font-family="Georgia" font-size="14" font-style="normal" font-weight="normal" text-anchor="end" text-decoration="normal">04</text><text x="45" y="94" fill="#000" stroke="none" dominant-baseline="alphabetic" font-family="Georgia" font-size="14" font-style="normal" font-weight="normal" text-anchor="end" text-decoration="normal">08</text><text x="45" y="110" fill="#000" stroke="none" dominant-baseline="alphabetic" font-family="Georgia" font-size="14" font-style="normal" font-weight="normal" text-anchor="end" text-decoration="normal">0c</text><path fill="green" stroke="none" d="M 8 85 A 3 3 0 1 1 7.999998500000125 84.9970000005 Z" paint-order="stroke fill markers"/><path fill="green" stroke="none" d="M 168 85 A 3 3 0 1 1 167.99999850000012 84.9970000005 Z" paint-order="stroke fill markers"/><path fill="green" stroke="none" d="M 88 135 A 3 3 0 1 1 87.99999850000013 134.9970000005 Z" paint-order="stroke fill markers"/></g></svg>