<svg xmlns="http://www.w3.org/2000/svg" xmlns:xlink="http://www.w3.org/1999/xlink" width="110" height="110" version="1.1"><g><path fill="#fff" stroke="#000" stroke-miterlimit="10" stroke-width="3" d="M 25 5 L 85 5 L 85 105 L 25 105 L 25 5 Z" paint-order="fill stroke markers"/><path fill="none" stroke="gray" stroke-miterlimit="10" stroke-width="5" d="M 73 52 L 73 17 Z" paint-order="fill stroke markers"/><path fill="none" stroke="gray" stroke-miterlimit="10" stroke-width="5" d="M 73 58 L 73 93 Z" paint-order="fill stroke markers"/><path fill="none" stroke="gray" stroke-miterlimit="10" stroke-width="5" d="M 37 52 L 37 17 Z" paint-order="fill stroke markers"/><path fill="none" stroke="gray" stroke-miterlimit="10" stroke-width="5" d="M 37 58 L 37 93 Z" paint-order="fill stroke markers"/><path fill="none" stroke="gray" stroke-miterlimit="10" stroke-width="5" d="M 38 17 L 72 17 Z" paint-order="fill stroke markers"/><path fill="none" stroke="gray" stroke-miterlimit="10" stroke-width="5" d="M 38 55 L 72 55 Z" paint-order="fill stroke markers"/><path fill="none" stroke="gray" stroke-miterlimit="10" stroke-width="5" d="M 40 93 L 72 93 Z" paint-order="fill stroke markers"/><path fill="none" stroke="gray" stroke-miterlimit="10" stroke-width="5" d="M 75 95 L 77 95 L 77 97 L 75 97 L 75 95 Z" paint-order="fill stroke markers"/><path fill="green" stroke="none" d="M 38 5 A 3 3 0 1 1 37.999998500000125 4.997000000499998 Z" paint-order="stroke fill markers"/><path fill="green" stroke="none" d="M 48 5 A 3 3 0 1 1 47.999998500000125 4.997000000499998 Z" paint-order="stroke fill markers"/><path fill="green" stroke="none" d="M 68 5 A 3 3 0 1 1 67.99999850000013 4.997000000499998 Z" paint-order="stroke fill markers"/><path fill="green" stroke="none" d="M 78 5 A 3 3 0 1 1 77.99999850000013 4.997000000499998 Z" paint-order="stroke fill markers"/><path fill="green" stroke="none" d="M 38 105 A 3 3 0 1 1 37.999998500000125 104.9970000005 Z" paint-order="stroke fill markers"/><path fill="green" stroke="none" d="M 48 105 A 3 3 0 1 1 47.999998500000125 104.9970000005 Z" paint-order="stroke fill markers"/><path fill="green" stroke="none" d="M 68 105 A 3 3 0 1 1 67.99999850000013 104.9970000005 Z" paint-order="stroke fill markers"/><path fill="green" stroke="none" d="M 78 105 A 3 3 0 1 1 77.99999850000013 104.9970000005 Z" paint-order="stroke fill markers"/></g></svg>