<svg xmlns="http://www.w3.org/2000/svg" xmlns:xlink="http://www.w3.org/1999/xlink" width="56" height="56" version="1.1"><g><path fill="#FFF" fill-opacity=".8" stroke="#000" stroke-miterlimit="10" stroke-width="3" d="M 5 5 L 45 5 L 45 45 L 5 45 L 5 5 Z" paint-order="fill stroke markers"/><path fill="none" stroke="none"/><text x="25" y="30" fill="green" stroke="none" dominant-baseline="alphabetic" font-family="Georgia" font-size="20" font-style="normal" font-weight="normal" text-anchor="middle" text-decoration="normal">0</text><path fill="green" stroke="none" d="M 8 35 A 3 3 0 1 1 7.999998500000125 34.9970000005 Z" paint-order="stroke fill markers"/><path fill="green" stroke="none" d="M 8 15 A 3 3 0 1 1 7.999998500000125 14.997000000499998 Z" paint-order="stroke fill markers"/><path fill="green" stroke="none" d="M 48 15 A 3 3 0 1 1 47.999998500000125 14.997000000499998 Z" paint-order="stroke fill markers"/><path fill="green" stroke="none" d="M 38 45 A 3 3 0 1 1 37.999998500000125 44.9970000005 Z" paint-order="stroke fill markers"/><path fill="green" stroke="none" d="M 18 45 A 3 3 0 1 1 17.999998500000125 44.9970000005 Z" paint-order="stroke fill markers"/><path fill="green" stroke="none" d="M 28 45 A 3 3 0 1 1 27.999998500000125 44.9970000005 Z" paint-order="stroke fill markers"/><path fill="green" stroke="none" d="M 48 35 A 3 3 0 1 1 47.999998500000125 34.9970000005 Z" paint-order="stroke fill markers"/></g></svg>